<svg id="Layer_1" data-name="Layer 1" xmlns="http://www.w3.org/2000/svg" xmlns:xlink="http://www.w3.org/1999/xlink" viewBox="0 0 993.64 1583.62"><defs><style>.cls-1{stroke:#a0a0a0;stroke-miterlimit:10;fill:url(#linear-gradient);}</style><linearGradient id="linear-gradient" x1="524.73" y1="980.28" x2="1517.37" y2="980.28" gradientUnits="userSpaceOnUse"><stop offset="0" stop-color="#606060"/><stop offset="1" stop-color="#a0a0a0"/></linearGradient></defs><text x="-524.23" y="-188.45"/><path class="cls-1" d="M1349.75,1449.39c0-98-61-172-219.86-172H873c-37,0-76.19-2.17-108.85-6.53v-6.53c-111-23.94-167.61-80.54-167.61-172,0-76.19,50.06-158.91,198.09-287.34l47.89,32.65C777.24,907.36,749,955.25,749,1020.56c0,58.77,23.94,98,126.25,98h287.35c232.92,0,343.94,102.32,343.94,278.64,0,187.21-178.5,374.42-531.15,374.42-313.47,0-450.61-108.84-450.61-265.58,0-106.66,67.48-187.21,287.34-280.81L823,1238.24c-87.08,84.9-121.91,150.2-121.91,235.1,0,143.67,111,200.27,280.82,200.27C1221.32,1673.61,1349.75,1573.47,1349.75,1449.39ZM966.63,189c222,0,387.48,117.55,387.48,357,0,230.75-169.8,357-389.66,357C740.24,903,574.8,785.46,574.8,546,574.8,315.26,744.59,189,966.63,189Zm-222,359.18c0,158.91,78.37,267.75,213.33,267.75,141.5,0,226.39-115.37,226.39-276.46,0-154.55-78.36-263.4-215.5-263.4C829.49,276.07,744.59,389.27,744.59,548.18ZM1484.72,189l32.65,21.77v135h-320V287Z" transform="translate(-524.23 -188.45)"/></svg>