<svg xmlns="http://www.w3.org/2000/svg" viewBox="0 0 12 16">
    <defs>
        <style>.cls-1,.cls-3{fill:#efefef;}.cls-2{fill:#606060;}.cls-3{opacity:0.65;}.cls-3,.cls-4{isolation:isolate;}.cls-4{opacity:0.2;}.cls-5{fill:#999;}</style>
    </defs>
    <path class="cls-1" d="M2,0V16H14V4L10,0Z" transform="translate(-2)"/>
    <path class="cls-2" d="M4,5.53H6.38A4.56,4.56,0,0,1,8.84,6,1.8,1.8,0,0,1,9.6,7.65a1.88,1.88,0,0,1-.42,1.26,2.06,2.06,0,0,1-1.24.64v.06c1.3.22,2,.9,2,2.05a2.22,2.22,0,0,1-.77,1.79,3.33,3.33,0,0,1-2.18.65H4ZM5,9.2H6.59a2.67,2.67,0,0,0,1.52-.33,1.28,1.28,0,0,0,.46-1.12,1.13,1.13,0,0,0-.51-1,3.27,3.27,0,0,0-1.64-.32H5ZM5,10v3.21H6.74a2.53,2.53,0,0,0,1.56-.41,1.46,1.46,0,0,0,.53-1.25,1.33,1.33,0,0,0-.54-1.17A2.86,2.86,0,0,0,6.66,10Z" transform="translate(-2)"/><path class="cls-3" d="M10,4V0l4,4Z" transform="translate(-2)"/><path class="cls-4" d="M13,5v5L9,5Z" transform="translate(-2)"/><path class="cls-5" d="M2,0V16H14V4L10,0ZM3,1H9V5h4V15H3Zm7,.4L12.6,4H10Z" transform="translate(-2)"/></svg>